<svg width="80" height="94" viewBox="0 0 80 94" fill="none" xmlns="http://www.w3.org/2000/svg">
<path d="M80 51C80 73.0914 62.0914 91 40 91C17.9086 91 0 73.0914 0 51C0 28.9086 17.9086 11 40 11C62.0914 11 80 28.9086 80 51Z" fill="#8362A3"/>
<path d="M50.048 52.08C50.176 52.336 50.24 52.8053 50.24 53.488C50.24 54.128 50.176 54.704 50.048 55.216C49.7067 55.5573 47.7013 57.4347 44.032 60.848C40.3627 64.2613 38.1013 66.3307 37.248 67.056C35.3707 68.6773 33.3013 70.256 31.04 71.792L28.48 68.976C36.5867 61.1253 41.0027 56.8587 41.728 56.176C42.496 55.4933 43.5627 54.5973 44.928 53.488C44.416 53.104 43.6907 52.4853 42.752 51.632L28.48 37.936L31.04 35.12C33.3867 36.6133 35.2 37.9573 36.48 39.152C37.8027 40.3467 40.2773 42.6933 43.904 46.192C47.5733 49.6907 49.6213 51.6533 50.048 52.08Z" fill="white"/>
</svg>
