<svg width="80" height="94" viewBox="0 0 80 94" fill="none" xmlns="http://www.w3.org/2000/svg">
<path d="M80 51C80 73.0914 62.0914 91 40 91C17.9086 91 0 73.0914 0 51C0 28.9086 17.9086 11 40 11C62.0914 11 80 28.9086 80 51Z" fill="#8362A3"/>
<path d="M27.136 55.216C27.008 54.704 26.944 54.128 26.944 53.488C26.944 52.8053 27.008 52.336 27.136 52.08C27.5627 51.6533 29.5893 49.6907 33.216 46.192C36.8853 42.6933 39.1253 40.56 39.936 39.792C41.4293 38.4693 43.4987 36.912 46.144 35.12L48.704 37.936C40.5973 45.7867 35.9467 50.2453 34.752 51.312C33.6 52.3787 32.768 53.104 32.256 53.488C33.6213 54.5973 34.3467 55.1947 34.432 55.28L48.704 68.976L46.144 71.792C43.84 70.256 42.0053 68.912 40.64 67.76C39.3173 66.5653 36.8213 64.2613 33.152 60.848C29.4827 57.4347 27.4773 55.5573 27.136 55.216Z" fill="white"/>
</svg>
