<svg width="15" height="15" viewBox="0 0 15 15" fill="none" xmlns="http://www.w3.org/2000/svg">
<g clip-path="url(#clip0_185_6691)">
<path d="M7.5 0.600098C3.69279 0.600098 0.599998 3.69289 0.599998 7.5001C0.599998 11.3073 3.69279 14.4001 7.5 14.4001C11.3072 14.4001 14.4 11.3073 14.4 7.5001C14.4 3.69289 11.3072 0.600098 7.5 0.600098ZM7.5 1.2001C10.9829 1.2001 13.8 4.01715 13.8 7.5001C13.8 10.983 10.9829 13.8001 7.5 13.8001C4.01705 13.8001 1.2 10.983 1.2 7.5001C1.2 4.01715 4.01705 1.2001 7.5 1.2001ZM10.2264 4.21064C10.0212 4.21064 9.7906 4.25817 9.5209 4.35537C9.1021 4.50627 4.17622 6.59774 3.61582 6.83564C3.29542 6.97184 2.69883 7.22519 2.69883 7.82939C2.69883 8.22989 2.93351 8.51635 3.39551 8.68135C3.64391 8.76985 4.23387 8.94867 4.57617 9.04287C4.72137 9.08277 4.87567 9.10322 5.03437 9.10322C5.34487 9.10322 5.65735 9.02586 5.90215 8.88936C5.90005 8.93976 5.90142 8.9907 5.90742 9.0417C5.94432 9.3567 6.13856 9.65297 6.42656 9.83447C6.61496 9.95327 8.15379 10.9843 8.38359 11.1481C8.70639 11.3788 9.06324 11.5009 9.41484 11.5009C10.0868 11.5009 10.3123 10.807 10.4209 10.4737C10.5784 9.98983 11.1682 6.05474 11.2348 5.36084C11.2801 4.88534 11.0819 4.49378 10.7045 4.31318C10.5632 4.24508 10.4019 4.21064 10.2264 4.21064ZM10.2264 4.81064C10.3089 4.81064 10.3825 4.82429 10.4449 4.85459C10.5868 4.92269 10.659 5.0745 10.6371 5.304C10.5645 6.0609 9.97618 9.90279 9.85078 10.288C9.74338 10.6174 9.63024 10.9009 9.41484 10.9009C9.19944 10.9009 8.96413 10.8254 8.73223 10.6595C8.50033 10.4939 6.96038 9.46117 6.74648 9.32647C6.55898 9.20827 6.36054 8.91361 6.63984 8.62861C6.86994 8.39401 8.61535 6.69998 8.76445 6.55088C8.87545 6.43958 8.82355 6.30537 8.71465 6.30537C8.67715 6.30537 8.63224 6.32118 8.58574 6.35928C8.40334 6.50838 5.86043 8.20998 5.64023 8.34678C5.49443 8.43738 5.26867 8.50264 5.03437 8.50264C4.93447 8.50264 4.83333 8.49067 4.73613 8.46397C4.39773 8.37067 3.82505 8.19692 3.59766 8.11592C3.37896 8.03792 3.29941 7.96319 3.29941 7.82939C3.29941 7.63919 3.56788 7.5079 3.85078 7.3876C4.14958 7.2607 9.31982 5.06513 9.72422 4.91963C9.91142 4.85183 10.0827 4.81064 10.2264 4.81064Z" fill="#805FA0"/>
</g>
<defs>
<clipPath id="clip0_185_6691">
<rect width="15" height="15" fill="white"/>
</clipPath>
</defs>
</svg>
