<svg width="15" height="15" viewBox="0 0 15 15" fill="none" xmlns="http://www.w3.org/2000/svg">
<path d="M7.50001 0.600098C3.69279 0.600098 0.600006 3.69289 0.600006 7.5001C0.600006 11.3073 3.69279 14.4001 7.50001 14.4001C11.3072 14.4001 14.4 11.3073 14.4 7.5001C14.4 3.69289 11.3072 0.600098 7.50001 0.600098ZM7.50001 1.2001C10.983 1.2001 13.8 4.01715 13.8 7.5001C13.8 10.983 10.983 13.8001 7.50001 13.8001C4.01706 13.8001 1.20001 10.983 1.20001 7.5001C1.20001 4.01715 4.01706 1.2001 7.50001 1.2001ZM10.2264 4.21064C10.0212 4.21064 9.7906 4.25817 9.5209 4.35537C9.10211 4.50627 4.17623 6.59774 3.61583 6.83564C3.29543 6.97184 2.69883 7.22519 2.69883 7.82939C2.69883 8.22989 2.93351 8.51635 3.39551 8.68135C3.64391 8.76985 4.23388 8.94867 4.57618 9.04287C4.72138 9.08277 4.87568 9.10322 5.03438 9.10322C5.34488 9.10322 5.65735 9.02586 5.90215 8.88936C5.90005 8.93976 5.90143 8.9907 5.90743 9.0417C5.94433 9.3567 6.13857 9.65297 6.42657 9.83447C6.61497 9.95327 8.1538 10.9843 8.3836 11.1481C8.7064 11.3788 9.06325 11.5009 9.41485 11.5009C10.0869 11.5009 10.3123 10.807 10.4209 10.4737C10.5784 9.98983 11.1682 6.05474 11.2348 5.36084C11.2801 4.88534 11.0819 4.49378 10.7045 4.31318C10.5632 4.24508 10.4019 4.21064 10.2264 4.21064ZM10.2264 4.81064C10.3089 4.81064 10.3825 4.82429 10.4449 4.85459C10.5868 4.92269 10.659 5.0745 10.6371 5.304C10.5645 6.0609 9.97619 9.90279 9.85079 10.288C9.74339 10.6174 9.63025 10.9009 9.41485 10.9009C9.19945 10.9009 8.96413 10.8254 8.73223 10.6595C8.50033 10.4939 6.96039 9.46117 6.74649 9.32647C6.55899 9.20827 6.36055 8.91361 6.63985 8.62861C6.86995 8.39401 8.61536 6.69998 8.76446 6.55088C8.87546 6.43958 8.82355 6.30537 8.71465 6.30537C8.67715 6.30537 8.63225 6.32118 8.58575 6.35928C8.40335 6.50838 5.86044 8.20998 5.64024 8.34678C5.49444 8.43738 5.26868 8.50264 5.03438 8.50264C4.93448 8.50264 4.83334 8.49066 4.73614 8.46396C4.39774 8.37067 3.82506 8.19692 3.59766 8.11592C3.37896 8.03792 3.29942 7.96319 3.29942 7.82939C3.29942 7.63919 3.56789 7.5079 3.85079 7.3876C4.14959 7.2607 9.31983 5.06513 9.72423 4.91963C9.91143 4.85183 10.0827 4.81064 10.2264 4.81064Z" fill="#999999"/>
</svg>
